<?xml version="1.0" encoding="UTF-8" standalone="no"?>
<!DOCTYPE svg PUBLIC "-//W3C//DTD SVG 1.1//EN" "http://www.w3.org/Graphics/SVG/1.1/DTD/svg11.dtd">
<svg width="100%" height="100%" viewBox="0 0 700 700" version="1.1" xmlns="http://www.w3.org/2000/svg" xmlns:xlink="http://www.w3.org/1999/xlink" xml:space="preserve" xmlns:serif="http://www.serif.com/" style="fill-rule:evenodd;clip-rule:evenodd;stroke-linejoin:round;stroke-miterlimit:2;">
    <g transform="matrix(1,0,0,1,-610,-190)">
        <g id="Brand-Mark" serif:id="Brand Mark" transform="matrix(0.191185,0,0,0.191185,1044.02,247.001)">
            <g transform="matrix(14.1074,0,0,14.1074,-7453.59,-7345.76)">
                <rect x="367.428" y="499.568" width="259.535" height="259.535" style="fill:rgb(79,57,246);"/>
            </g>
            <g transform="matrix(11.9933,0,0,11.9933,-14308.8,-4231.67)">
                <path d="M1156.42,371.588L1185.87,451.171L1265.45,480.619L1185.87,510.067L1156.42,589.649L1126.97,510.067L1047.39,480.619L1126.97,451.171L1156.42,371.588Z" style="fill:white;"/>
            </g>
            <g transform="matrix(6.78443,6.78443,-6.78443,6.78443,-5024.38,-9573.85)">
                <path d="M1156.42,371.588L1185.87,451.171L1265.45,480.619L1185.87,510.067L1156.42,589.649L1126.97,510.067L1047.39,480.619L1126.97,451.171L1156.42,371.588Z" style="fill:white;"/>
            </g>
        </g>
    </g>
</svg>
