<?xml version="1.0" encoding="UTF-8" standalone="no"?>
<!DOCTYPE svg PUBLIC "-//W3C//DTD SVG 1.1//EN" "http://www.w3.org/Graphics/SVG/1.1/DTD/svg11.dtd">
<svg width="100%" height="100%" viewBox="0 0 875 100" version="1.1" xmlns="http://www.w3.org/2000/svg" xmlns:xlink="http://www.w3.org/1999/xlink" xml:space="preserve" xmlns:serif="http://www.serif.com/" style="fill-rule:evenodd;clip-rule:evenodd;stroke-linejoin:round;stroke-miterlimit:2;">
    <g transform="matrix(1,0,0,1,-522.971,-490)">
        <g id="Workmark" transform="matrix(1.00644,0,0,1.00644,-25.5536,-62.2465)">
            <path d="M611.254,646.344L565.462,581.832L565.462,646.344L545.014,646.344L545.014,550.296L566.038,550.296L610.534,612.504L610.534,550.296L630.982,550.296L630.982,646.344L611.254,646.344ZM645.382,598.392C645.382,569.448 666.55,548.712 695.494,548.712C724.582,548.712 745.75,569.448 745.75,598.392C745.75,627.336 724.582,648.072 695.494,648.072C666.55,648.072 645.382,627.336 645.382,598.392ZM678.013,607.48L670.77,623.232L686.522,615.989L695.61,640.547L704.697,615.989L720.45,623.232L713.206,607.48L737.765,598.392L713.206,589.305L720.45,573.552L704.697,580.795L695.61,556.237L686.522,580.795L670.77,573.552L678.013,589.305L653.455,598.392L678.013,607.48ZM814.438,646.344L795.574,611.928L780.598,611.928L780.598,646.344L760.15,646.344L760.15,550.296L805.078,550.296C825.094,550.296 837.334,563.4 837.334,581.256C837.334,598.248 826.678,607.32 816.31,609.768L837.91,646.344L814.438,646.344ZM816.454,581.112C816.454,573.048 810.262,567.864 802.054,567.864L780.598,567.864L780.598,594.36L802.054,594.36C810.262,594.36 816.454,589.176 816.454,581.112ZM873.478,646.344L873.478,568.296L845.398,568.296L845.398,550.296L922.006,550.296L922.006,568.296L894.07,568.296L894.07,646.344L873.478,646.344ZM1000.92,646.344L1000.92,606.024L955.558,606.024L955.558,646.344L935.11,646.344L935.11,550.296L955.558,550.296L955.558,588.024L1000.92,588.024L1000.92,550.296L1021.51,550.296L1021.51,646.344L1000.92,646.344ZM1070.61,632.808L1081.85,617.256C1088.61,624.312 1099.13,630.216 1112.37,630.216C1123.61,630.216 1129.08,624.888 1129.08,619.416C1129.08,612.216 1120.73,609.768 1109.64,607.176C1093.94,603.576 1073.78,599.256 1073.78,577.8C1073.78,561.816 1087.61,548.856 1110.21,548.856C1125.48,548.856 1138.15,553.464 1147.65,562.248L1136.28,577.224C1128.5,570.024 1118.13,566.712 1108.77,566.712C1099.56,566.712 1094.66,570.744 1094.66,576.504C1094.66,582.984 1102.73,585 1113.81,587.592C1129.65,591.192 1149.81,595.944 1149.81,617.256C1149.81,634.824 1137.29,648.072 1111.37,648.072C1092.93,648.072 1079.69,641.88 1070.61,632.808ZM1184.81,646.344L1184.81,568.296L1156.73,568.296L1156.73,550.296L1233.33,550.296L1233.33,568.296L1205.4,568.296L1205.4,646.344L1184.81,646.344ZM1304.47,646.344L1298.42,629.784L1255.51,629.784L1249.46,646.344L1227,646.344L1264.15,550.296L1289.78,550.296L1326.79,646.344L1304.47,646.344ZM1276.97,568.008L1260.98,612.072L1292.81,612.072L1276.97,568.008ZM1390.01,646.344L1371.14,611.928L1356.17,611.928L1356.17,646.344L1335.72,646.344L1335.72,550.296L1380.65,550.296C1400.66,550.296 1412.9,563.4 1412.9,581.256C1412.9,598.248 1402.25,607.32 1391.88,609.768L1413.48,646.344L1390.01,646.344ZM1392.02,581.112C1392.02,573.048 1385.83,567.864 1377.62,567.864L1356.17,567.864L1356.17,594.36L1377.62,594.36C1385.83,594.36 1392.02,589.176 1392.02,581.112Z" style="fill:rgb(17,17,17);"/>
        </g>
    </g>
</svg>
