<?xml version="1.0" encoding="UTF-8" standalone="no"?>
<!DOCTYPE svg PUBLIC "-//W3C//DTD SVG 1.1//EN" "http://www.w3.org/Graphics/SVG/1.1/DTD/svg11.dtd">
<svg width="100%" height="100%" viewBox="0 0 1281 100" version="1.1" xmlns="http://www.w3.org/2000/svg" xmlns:xlink="http://www.w3.org/1999/xlink" xml:space="preserve" xmlns:serif="http://www.serif.com/" style="fill-rule:evenodd;clip-rule:evenodd;stroke-linejoin:round;stroke-miterlimit:2;">
    <g transform="matrix(1,0,0,1,-335.517,-497.681)">
        <g id="Wordmark" transform="matrix(1.00644,0,0,1.00644,9.47835,4.20247)">
            <path d="M390.192,587.952L344.4,523.44L344.4,587.952L323.952,587.952L323.952,491.904L344.976,491.904L389.472,554.112L389.472,491.904L409.92,491.904L409.92,587.952L390.192,587.952ZM424.32,540C424.32,511.056 445.488,490.32 474.432,490.32C503.52,490.32 524.688,511.056 524.688,540C524.688,568.944 503.52,589.68 474.432,589.68C445.488,589.68 424.32,568.944 424.32,540ZM457.538,549.164L450.897,563.607L465.34,556.966L474.504,581.731L483.668,556.966L498.111,563.607L491.47,549.164L516.235,540L491.47,530.836L498.111,516.393L483.668,523.034L474.504,498.269L465.34,523.034L450.897,516.393L457.538,530.836L432.773,540L457.538,549.164ZM593.376,587.952L574.512,553.536L559.536,553.536L559.536,587.952L539.088,587.952L539.088,491.904L584.016,491.904C604.032,491.904 616.272,505.008 616.272,522.864C616.272,539.856 605.616,548.928 595.248,551.376L616.848,587.952L593.376,587.952ZM595.392,522.72C595.392,514.656 589.2,509.472 580.992,509.472L559.536,509.472L559.536,535.968L580.992,535.968C589.2,535.968 595.392,530.784 595.392,522.72ZM652.416,587.952L652.416,509.904L624.336,509.904L624.336,491.904L700.944,491.904L700.944,509.904L673.008,509.904L673.008,587.952L652.416,587.952ZM779.856,587.952L779.856,547.632L734.496,547.632L734.496,587.952L714.048,587.952L714.048,491.904L734.496,491.904L734.496,529.632L779.856,529.632L779.856,491.904L800.448,491.904L800.448,587.952L779.856,587.952ZM849.552,574.416L860.784,558.864C867.552,565.92 878.064,571.824 891.312,571.824C902.544,571.824 908.016,566.496 908.016,561.024C908.016,553.824 899.664,551.376 888.576,548.784C872.88,545.184 852.72,540.864 852.72,519.408C852.72,503.424 866.544,490.464 889.152,490.464C904.416,490.464 917.088,495.072 926.592,503.856L915.216,518.832C907.44,511.632 897.072,508.32 887.712,508.32C878.496,508.32 873.6,512.352 873.6,518.112C873.6,524.592 881.664,526.608 892.752,529.2C908.592,532.8 928.752,537.552 928.752,558.864C928.752,576.432 916.224,589.68 890.304,589.68C871.872,589.68 858.624,583.488 849.552,574.416ZM963.744,587.952L963.744,509.904L935.664,509.904L935.664,491.904L1012.27,491.904L1012.27,509.904L984.336,509.904L984.336,587.952L963.744,587.952ZM1083.41,587.952L1077.36,571.392L1034.45,571.392L1028.4,587.952L1005.94,587.952L1043.09,491.904L1068.72,491.904L1105.73,587.952L1083.41,587.952ZM1055.9,509.616L1039.92,553.68L1071.74,553.68L1055.9,509.616ZM1168.94,587.952L1150.08,553.536L1135.1,553.536L1135.1,587.952L1114.66,587.952L1114.66,491.904L1159.58,491.904C1179.6,491.904 1191.84,505.008 1191.84,522.864C1191.84,539.856 1181.18,548.928 1170.82,551.376L1192.42,587.952L1168.94,587.952ZM1170.96,522.72C1170.96,514.656 1164.77,509.472 1156.56,509.472L1135.1,509.472L1135.1,535.968L1156.56,535.968C1164.77,535.968 1170.96,530.784 1170.96,522.72ZM1244.11,587.952L1244.11,491.904L1281.98,491.904C1312.08,491.904 1332.96,511.056 1332.96,540C1332.96,568.944 1312.08,587.952 1281.98,587.952L1244.11,587.952ZM1264.56,569.952L1281.98,569.952C1300.99,569.952 1312.08,556.272 1312.08,540C1312.08,523.008 1301.71,509.904 1281.98,509.904L1264.56,509.904L1264.56,569.952ZM1409.86,587.952L1403.81,571.392L1360.9,571.392L1354.85,587.952L1332.38,587.952L1369.54,491.904L1395.17,491.904L1432.18,587.952L1409.86,587.952ZM1382.35,509.616L1366.37,553.68L1398.19,553.68L1382.35,509.616ZM1454.06,587.952L1454.06,509.904L1425.98,509.904L1425.98,491.904L1502.59,491.904L1502.59,509.904L1474.66,509.904L1474.66,587.952L1454.06,587.952ZM1573.73,587.952L1567.68,571.392L1524.77,571.392L1518.72,587.952L1496.26,587.952L1533.41,491.904L1559.04,491.904L1596.05,587.952L1573.73,587.952ZM1546.22,509.616L1530.24,553.68L1562.06,553.68L1546.22,509.616Z" style="fill:rgb(79,57,246);"/>
        </g>
    </g>
</svg>
